# xmcd
#
# Track frame offsets: 
#        150
#        11532
#        20850
#        34200
#        45247
#        59190
#        73470
#        86302
#        98195
#        110332
#        123082
#        133812
#        146155
#        157805
#        169500
#        185172
#
# Disc length: 2637 seconds
#
# Revision: 4
# Processed by: cddbd v1.5.2PL0 Copyright (c) Steve Scherf et al.
# Submitted via: ExactAudioCopy v1.3
#
DISCID=e10a4b10
DTITLE=Ray Charles - Blues is My Middle name
DYEAR=2005
DGENRE=Blues
TTITLE0=All Alone Again
TTITLE1=All To Myself Alone
TTITLE2=Alone In The City
TTITLE3=A Sentimental Blues
TTITLE4=Baby Let Me Hold Your Hand
TTITLE5=Blues Is My Middle Name
TTITLE6=Can Anyone Ask For More
TTITLE7=Can't You See Darling
TTITLE8=C.C. Rider
TTITLE9=Going Down Slow
TTITLE10=Hey Now
TTITLE11=Honey Honey
TTITLE12=How Long
TTITLE13=If I Give You My Love
TTITLE14=I Found My Baby There
TTITLE15=You Always Miss The Water
EXTD=
EXTT0=
EXTT1=
EXTT2=
EXTT3=
EXTT4=
EXTT5=
EXTT6=
EXTT7=
EXTT8=
EXTT9=
EXTT10=
EXTT11=
EXTT12=
EXTT13=
EXTT14=
EXTT15=
PLAYORDER=
